<?xml version="1.0" encoding="UTF-8"?>
<svg width="18px" height="18px" viewBox="0 0 18 18" version="1.1" xmlns="http://www.w3.org/2000/svg" xmlns:xlink="http://www.w3.org/1999/xlink">
    <title>328EA674-449D-4DC5-BD1D-768646074746</title>
    <g id="Screens" stroke="none" stroke-width="1" fill="none" fill-rule="evenodd" opacity="0.6">
        <g id="Homepage---Dark" transform="translate(-36.000000, -180.000000)" fill="#FFFFFF" fill-rule="nonzero">
            <path d="M36,187.280284 C36,191.294475 39.2978506,194.560568 43.3510747,194.560568 C44.9539406,194.560568 46.4186285,194.049671 47.6253838,193.192093 L52.1576254,197.689812 C52.3694985,197.899645 52.6458547,198 52.9406346,198 C53.567042,198 54,197.534719 54,196.923467 C54,196.631526 53.8894575,196.366954 53.6960082,196.175367 L49.1914023,191.686771 C50.1402252,190.464268 50.7021494,188.940699 50.7021494,187.280284 C50.7021494,183.266092 47.4042989,180 43.3510747,180 C39.2978506,180 36,183.266092 36,187.280284 Z M37.5752303,187.280284 C37.5752303,184.12367 40.1637666,181.560061 43.3510747,181.560061 C46.5383828,181.560061 49.1269191,184.12367 49.1269191,187.280284 C49.1269191,190.436898 46.5383828,193.000507 43.3510747,193.000507 C40.1637666,193.000507 37.5752303,190.436898 37.5752303,187.280284 Z" id="search_input"></path>
        </g>
    </g>
</svg>