<?xml version="1.0" encoding="UTF-8"?>
<svg width="72px" height="72px" viewBox="0 0 72 72" version="1.1" xmlns="http://www.w3.org/2000/svg" xmlns:xlink="http://www.w3.org/1999/xlink">
    <title>03C19E57-94ED-4E35-8E10-E2C514160149</title>
    <g id="Screens" stroke="none" stroke-width="1" fill="none" fill-rule="evenodd">
        <g id="Details---Dark" transform="translate(-18.000000, -1646.000000)">
            <g id="Group-4" transform="translate(18.000000, 1268.000000)">
                <g id="missing_comic" transform="translate(0.000000, 378.000000)">
                    <rect id="Rectangle-Copy-13" fill="#D8D8D8" x="0" y="0" width="72" height="72" rx="9"></rect>
                    <path d="M35.2825033,26.8707714 C29.5848732,27.163273 25.0540379,31.9312379 25.0540379,37.7696886 C25.0540379,39.7394958 25.5698018,41.5874273 26.4719849,43.1827192 L25.3793514,45.30578 C23.881321,43.1804299 23,40.5791586 23,37.7696886 C23,30.5947802 28.747699,24.7777419 35.8378378,24.7777419 C35.9391871,24.7777419 36.0402671,24.7789539 36.1409434,24.7813779 L37.9953785,21 L41.9570161,21 L41.9570161,26.3459653 C45.9588973,28.5459222 48.6756757,32.8368886 48.6756757,37.7696886 C48.6756757,44.9447317 42.9279767,50.7616354 35.8378378,50.7616354 C33.6737021,50.7616354 31.6346041,50.2195917 29.8458509,49.2624973 L30.7492453,47.3939614 C32.2650421,48.2163866 33.9975351,48.6828808 35.8378378,48.6828808 C41.7934845,48.6828808 46.6216378,43.796811 46.6216378,37.7696886 C46.6216378,34.002855 44.7355731,30.6816419 41.8671073,28.7203189 L41.8671073,39.0487772 L38.2467999,35.6225221 L38.2467999,27.7943331 L33.7759935,38.4185251 L38.2467999,38.4185251 L38.2467999,36.712939 L42.4381894,40.6553814 L38.1070914,43.9823853 L38.1070914,42.2210461 L32.2112045,42.2210461 L28.3274968,51 L23.5212823,50.9058662 L35.2825033,26.8707714 Z" id="missing_icon" fill-opacity="0.3" fill="#000000"></path>
                </g>
            </g>
        </g>
    </g>
</svg>